<svg xmlns="http://www.w3.org/2000/svg" viewBox="0 0 53.94 53.94"><g id="Layer_2" data-name="Layer 2"><g id="Layer_1-2" data-name="Layer 1"><path d="M21.71,21.37c0-2.54-1.74-2.54-1.74-2.54H12.85v5.45h6.68C20.69,24.28,21.71,23.92,21.71,21.37Z"/><path d="M20,28.06H12.85v6.53h6.8c1,0,2.9-.34,2.9-3.17C22.55,28,20,28.06,20,28.06Z"/><path d="M38.21,24.28c-3.78,0-4.31,3.78-4.31,3.78h8S42,24.28,38.21,24.28Z"/><path d="M27,0a27,27,0,1,0,27,27A27,27,0,0,0,27,0Zm5.88,15.92H42.94v3H32.85Zm-5.1,15.8c0,7.47-7.78,7.22-7.78,7.22H7.24V14.48H20c3.87,0,6.93,2.13,6.93,6.51s-3.74,4.66-3.74,4.66C28.09,25.65,27.75,31.72,27.75,31.72Zm10.5,3.86c4.07,0,3.93-2.63,3.93-2.63h4.3c0,7-8.37,6.5-8.37,6.5-10,0-9.4-9.35-9.4-9.35s0-9.4,9.4-9.4c9.9,0,8.52,10.62,8.52,10.62H34A4,4,0,0,0,38.25,35.58Z"/></g></g></svg>