<svg xmlns="http://www.w3.org/2000/svg" viewBox="0 0 53.94 53.94"><g id="Layer_2" data-name="Layer 2"><g id="Layer_1-2" data-name="Layer 1"><path d="M18.52,20.84a70.29,70.29,0,0,0,7.53-2A63.78,63.78,0,0,0,14.24,3.3a27.09,27.09,0,0,0-13.71,18A46.63,46.63,0,0,0,18.52,20.84Z"/><path d="M44.12,6.33l-.45,1.74c-.69,2.78-6.58,6.76-14.3,9.64l-.35.12A67,67,0,0,0,17.31,1.91,26.39,26.39,0,0,1,26.93,0,27,27,0,0,1,43.1,5.51,8.72,8.72,0,0,1,44.12,6.33Z"/><path d="M30.26,28.26c-.83-2.24-1.74-4.42-2.76-6.54a65.88,65.88,0,0,1-8.35,2.21A58.79,58.79,0,0,1,7.63,25.14,40.89,40.89,0,0,1,0,24.47C0,25.29,0,26.11,0,27A26.85,26.85,0,0,0,9.75,47.64c0-.19.06-.38.1-.57C11.05,39.8,19.47,32.12,30.26,28.26Z"/><path d="M31.3,31.23a76,76,0,0,1,3.48,21.54A26.46,26.46,0,0,1,13,49.94a6.49,6.49,0,0,1,0-2.37C14,41.6,21.81,34.68,31.3,31.23Z"/><path d="M53.65,30.79a27,27,0,0,1-15.77,20.7,78.47,78.47,0,0,0-3.61-21.2C41.36,28.33,48.08,28.55,53.65,30.79Z"/><path d="M53.94,27v.57c-6-2.25-13.21-2.34-20.68-.22-.82-2.28-1.77-4.49-2.78-6.64,5.2-1.95,14.91-6.44,16.26-11.85A26.78,26.78,0,0,1,53.94,27Z"/></g></g></svg>