<svg xmlns="http://www.w3.org/2000/svg" viewBox="0 0 53.94 53.94"><g id="Layer_2" data-name="Layer 2"><g id="Layer_1-2" data-name="Layer 1"><path d="M27,0A27.08,27.08,0,0,0,0,27c0,12.64,8.87,24.12,20.65,27V45a6.55,6.55,0,0,1-3.43-.08,6.64,6.64,0,0,1-3.85-3.15c-.61-1-1.7-2.16-2.83-2.08l-.28-3.14c2.45-.21,4.57,1.49,5.83,3.6a3.51,3.51,0,0,0,2,1.74,4.32,4.32,0,0,0,2.66-.23c.25-2,1.16-2.75,1.85-3.8h0c-7-1-9.82-4.77-10.93-7.71a12.39,12.39,0,0,1,1.92-11.87.46.46,0,0,0,.11-.33,10.32,10.32,0,0,1,.31-6.9c1.38.4,1.6-.41,6,2.25l.75.46c.32.18.22.08.54.05A23,23,0,0,1,27,13a23.18,23.18,0,0,1,5.74.81l.24,0s.07,0,.22-.11c5.47-3.31,5.27-2.23,6.74-2.71A10.55,10.55,0,0,1,40.22,18c-.16.49,4.75,5,2,12.2-1.11,2.94-3.91,6.67-10.94,7.71h0c.9,1.37,2,2.1,2,4.93V53.94c11.78-2.85,20.65-14.33,20.65-27A27.08,27.08,0,0,0,27,0Z"/></g></g></svg>