<svg xmlns="http://www.w3.org/2000/svg" viewBox="0 0 53.94 53.94"><g id="Layer_2" data-name="Layer 2"><g id="Layer_1-2" data-name="Layer 1"><path d="M32.13,27A5.16,5.16,0,1,1,27,21.81,5.16,5.16,0,0,1,32.13,27Z"/><path d="M39,17.84A5.07,5.07,0,0,0,36.1,14.9a8.28,8.28,0,0,0-2.87-.54c-1.64-.07-2.13-.09-6.26-.09s-4.63,0-6.26.09a8.28,8.28,0,0,0-2.87.54,5,5,0,0,0-2.94,2.94,8.28,8.28,0,0,0-.54,2.87c-.07,1.63-.09,2.12-.09,6.26s0,4.62.09,6.26a8.28,8.28,0,0,0,.54,2.87A5.09,5.09,0,0,0,17.83,39a8.74,8.74,0,0,0,2.88.53c1.63.08,2.12.09,6.26.09s4.62,0,6.26-.09A8.6,8.6,0,0,0,36.1,39,5.13,5.13,0,0,0,39,36.1a8.6,8.6,0,0,0,.53-2.87c.08-1.64.09-2.13.09-6.26s0-4.63-.09-6.26A8.6,8.6,0,0,0,39,17.84ZM27,34.92a8,8,0,1,1,8-8A8,8,0,0,1,27,34.92Zm8.26-14.36a1.86,1.86,0,1,1,1.86-1.86A1.85,1.85,0,0,1,35.23,20.56Z"/><path d="M27,0a27,27,0,1,0,27,27A27,27,0,0,0,27,0ZM42.36,33.35a11.27,11.27,0,0,1-.72,3.76,7.9,7.9,0,0,1-4.53,4.53,11.27,11.27,0,0,1-3.76.72c-1.65.08-2.18.09-6.38.09s-4.73,0-6.39-.09a11.26,11.26,0,0,1-3.75-.72,7.61,7.61,0,0,1-2.75-1.79,7.42,7.42,0,0,1-1.78-2.74,11,11,0,0,1-.72-3.76c-.08-1.65-.1-2.18-.1-6.38s0-4.73.1-6.39a11.13,11.13,0,0,1,.72-3.76,7.86,7.86,0,0,1,4.52-4.52,11.13,11.13,0,0,1,3.76-.72c1.66-.08,2.18-.1,6.39-.1s4.73,0,6.38.1a11,11,0,0,1,3.76.72,7.42,7.42,0,0,1,2.74,1.78,7.66,7.66,0,0,1,1.79,2.74,11.38,11.38,0,0,1,.72,3.76c.08,1.66.09,2.18.09,6.39S42.44,31.7,42.36,33.35Z"/></g></g></svg>