<svg xmlns="http://www.w3.org/2000/svg" viewBox="0 0 53.94 53.94"><g id="Layer_2" data-name="Layer 2"><g id="Layer_1-2" data-name="Layer 1"><path d="M27,0a27,27,0,1,0,27,27A27,27,0,0,0,27,0ZM39.28,21c0,.26,0,.53,0,.8,0,8.18-6.23,17.61-17.61,17.61h0a17.57,17.57,0,0,1-9.49-2.78,12,12,0,0,0,1.48.08,12.38,12.38,0,0,0,7.68-2.65,6.19,6.19,0,0,1-5.78-4.3,5.64,5.64,0,0,0,1.16.12,6.3,6.3,0,0,0,1.64-.22,6.19,6.19,0,0,1-5-6.07v-.08a6.22,6.22,0,0,0,2.81.78,6.19,6.19,0,0,1-1.92-8.27,17.55,17.55,0,0,0,12.76,6.47,6,6,0,0,1-.16-1.41,6.2,6.2,0,0,1,10.71-4.24,12.23,12.23,0,0,0,3.93-1.5,6.26,6.26,0,0,1-2.73,3.43,12.43,12.43,0,0,0,3.56-1A12.74,12.74,0,0,1,39.28,21Z"/></g></g></svg>